<svg xmlns="http://www.w3.org/2000/svg" width="149" height="149" viewBox="0 0 149 149" version="1.1"><path d="" stroke="none" fill="#fc04fc" fill-rule="evenodd"/><path d="M 52.272 17.207 C 51.038 18.735, 47.256 28.393, 27.488 80.500 C 11.778 121.911, 10.298 124.756, 3.267 127.077 C -0.695 128.384, -0.833 131.038, 3.005 132.106 C 6.953 133.205, 36.801 133.131, 37.487 132.021 C 38.316 130.680, 36.229 127, 34.639 127 C 33.929 127, 32.258 125.839, 30.924 124.419 C 28.347 121.675, 28.081 118.246, 29.516 106.250 L 30.144 101 48.322 101.005 L 66.500 101.010 68.830 108.787 C 70.111 113.064, 71.011 118.124, 70.830 120.032 C 70.536 123.122, 69.936 123.762, 65.324 125.908 C 61.768 127.562, 60.190 128.872, 60.282 130.092 C 60.464 132.509, 68.992 133.206, 93.500 132.808 C 112.044 132.507, 112.507 132.449, 112.805 130.359 C 113.037 128.732, 112.196 127.771, 109.305 126.359 C 106.061 124.774, 104.758 123.025, 100.466 114.500 C 95.298 104.233, 87.900 88.280, 87.481 86.500 C 87.046 84.655, 62.080 27.566, 59.273 22 C 56.464 16.428, 54.170 14.857, 52.272 17.207 M 52.354 33.750 C 49.709 39.679, 50.187 44.551, 54.390 54.500 C 71.400 94.759, 79.752 119.155, 78.387 124.593 L 77.783 127 88.408 127 L 99.034 127 96.634 122.250 C 94.399 117.825, 74.697 73.509, 61.512 43.250 C 58.337 35.962, 55.353 30, 54.883 30 C 54.412 30, 53.274 31.688, 52.354 33.750 M 39.174 72.288 C 35.757 82.305, 32.970 91.287, 32.981 92.250 C 32.998 93.834, 34.356 94, 47.333 94 C 55.217 94, 61.932 93.734, 62.257 93.410 C 62.582 93.085, 62.227 91.060, 61.468 88.910 C 60.709 86.759, 60.406 84.993, 60.794 84.985 C 61.182 84.976, 61.028 84.639, 60.450 84.235 C 59.873 83.831, 56.770 77.313, 53.555 69.752 C 50.340 62.191, 47.187 55.570, 46.548 55.040 C 45.702 54.338, 43.700 59.020, 39.174 72.288 M 137 115.873 C 133.364 116.854, 130.607 122.837, 132.047 126.623 C 133.722 131.029, 136.005 133, 139.432 133 C 149.091 133, 152.150 120.050, 143.360 116.377 C 141.547 115.620, 139.937 115.045, 139.782 115.100 C 139.627 115.155, 138.375 115.503, 137 115.873 M 18.513 122.622 C 16.600 127.201, 16.558 127, 19.441 127 C 22.538 127, 23.317 125.718, 22.495 121.976 C 21.625 118.015, 20.352 118.222, 18.513 122.622" stroke="none" fill="#fcfcfc" fill-rule="evenodd"/></svg>