<?xml version="1.0" standalone="no"?>
<!DOCTYPE svg PUBLIC "-//W3C//DTD SVG 20010904//EN"
 "http://www.w3.org/TR/2001/REC-SVG-20010904/DTD/svg10.dtd">
<svg version="1.0" xmlns="http://www.w3.org/2000/svg"
 width="112.000000pt" height="112.000000pt" viewBox="0 0 112.000000 112.000000"
 preserveAspectRatio="xMidYMid meet">
<metadata>
Created by potrace 1.14, written by Peter Selinger 2001-2017
</metadata>
<g transform="translate(0.000000,112.000000) scale(0.100000,-0.100000)"
fill="#000000" stroke="none">
<path d="M386 973 c-7 -16 -25 -59 -39 -98 -22 -60 -216 -571 -245 -646 -13
-32 -58 -69 -84 -69 -13 0 -18 -6 -16 -17 3 -16 19 -18 141 -21 132 -2 137 -2
137 18 0 11 -7 20 -15 20 -8 0 -25 10 -36 21 -20 20 -21 29 -15 97 3 41 9 78
12 81 3 3 66 6 140 7 l134 1 24 -76 c28 -89 24 -105 -35 -122 -27 -9 -39 -17
-37 -28 3 -14 30 -16 201 -19 188 -2 197 -2 197 17 0 12 -9 21 -24 25 -36 9
-55 41 -144 246 -44 102 -108 248 -142 325 -33 77 -71 163 -82 190 -36 84 -49
92 -72 48z m174 -393 c78 -179 152 -346 165 -371 l22 -45 -81 0 -81 1 3 30 c5
50 -65 248 -178 504 -25 57 -39 103 -36 116 8 32 37 98 41 94 2 -2 67 -150
145 -329z m-140 -16 c28 -69 53 -131 56 -139 5 -13 -13 -15 -115 -15 l-121 0
6 28 c4 15 26 83 50 152 24 68 44 127 44 130 1 18 36 -49 80 -156z m-247 -369
c5 -28 3 -31 -23 -33 l-28 -2 15 40 c18 44 27 42 36 -5z"/>
<path d="M1007 232 c-37 -40 -6 -112 47 -112 34 0 69 46 61 79 -12 49 -76 68
-108 33z"/>
</g>
</svg>
